<svg xmlns="http://www.w3.org/2000/svg" xmlns:xlink="http://www.w3.org/1999/xlink" width="176" zoomAndPan="magnify" viewBox="0 0 132 30.000001" height="40" preserveAspectRatio="xMidYMid meet" version="1.0"><defs><g/><clipPath id="113786f9aa"><path d="M 2.128906 0 L 31 0 L 31 29.03125 L 2.128906 29.03125 Z M 2.128906 0 " clip-rule="nonzero"/></clipPath><clipPath id="112f53eead"><path d="M 38 4 L 129.871094 4 L 129.871094 23 L 38 23 Z M 38 4 " clip-rule="nonzero"/></clipPath><clipPath id="3b478c0135"><path d="M 36.277344 1.453125 L 115.390625 1.453125 L 115.390625 21.046875 L 36.277344 21.046875 Z M 36.277344 1.453125 " clip-rule="nonzero"/></clipPath><clipPath id="481f3969c3"><path d="M 96.957031 4.550781 L 129.871094 4.550781 L 129.871094 24.148438 L 96.957031 24.148438 Z M 96.957031 4.550781 " clip-rule="nonzero"/></clipPath></defs><g clip-path="url(#113786f9aa)"><path fill="#5f6fff" d="M 16.402344 0.710938 C 24.230469 0.710938 30.574219 7.117188 30.574219 15.019531 L 30.574219 25.035156 C 30.574219 26.175781 30.125 27.265625 29.328125 28.074219 C 28.53125 28.878906 27.449219 29.328125 26.324219 29.328125 L 17.113281 29.328125 L 17.113281 23.050781 C 17.113281 21.621094 17.199219 20.136719 17.941406 18.917969 C 18.476562 18.042969 19.1875 17.296875 20.03125 16.722656 C 20.875 16.152344 21.832031 15.773438 22.835938 15.605469 L 23.105469 15.5625 C 23.21875 15.523438 23.316406 15.449219 23.382812 15.355469 C 23.453125 15.257812 23.488281 15.140625 23.488281 15.019531 C 23.488281 14.902344 23.453125 14.785156 23.382812 14.6875 C 23.316406 14.589844 23.21875 14.519531 23.105469 14.480469 L 22.835938 14.433594 C 21.367188 14.191406 20.015625 13.492188 18.964844 12.433594 C 17.917969 11.375 17.222656 10.007812 16.984375 8.527344 L 16.941406 8.253906 C 16.902344 8.140625 16.828125 8.042969 16.734375 7.972656 C 16.636719 7.902344 16.523438 7.867188 16.402344 7.867188 C 16.285156 7.867188 16.171875 7.902344 16.074219 7.972656 C 15.976562 8.042969 15.90625 8.140625 15.867188 8.253906 L 15.824219 8.527344 C 15.660156 9.539062 15.28125 10.503906 14.714844 11.359375 C 14.152344 12.210938 13.410156 12.929688 12.546875 13.46875 C 11.335938 14.21875 9.867188 14.304688 8.449219 14.304688 L 2.25 14.304688 C 2.621094 6.734375 8.816406 0.710938 16.402344 0.710938 Z M 16.402344 0.710938 " fill-opacity="1" fill-rule="nonzero"/><path fill="#5f6fff" d="M 2.234375 15.734375 L 8.449219 15.734375 C 9.867188 15.734375 11.335938 15.824219 12.546875 16.574219 C 13.488281 17.160156 14.285156 17.964844 14.863281 18.917969 C 15.609375 20.136719 15.695312 21.621094 15.695312 23.050781 L 15.695312 29.328125 L 6.484375 29.328125 C 5.355469 29.328125 4.277344 28.878906 3.480469 28.074219 C 2.679688 27.265625 2.234375 26.175781 2.234375 25.035156 Z M 30.574219 2.144531 C 30.574219 2.523438 30.425781 2.886719 30.160156 3.15625 C 29.894531 3.421875 29.53125 3.574219 29.15625 3.574219 C 28.78125 3.574219 28.421875 3.421875 28.15625 3.15625 C 27.890625 2.886719 27.738281 2.523438 27.738281 2.144531 C 27.738281 1.761719 27.890625 1.398438 28.15625 1.132812 C 28.421875 0.863281 28.78125 0.710938 29.15625 0.710938 C 29.53125 0.710938 29.894531 0.863281 30.160156 1.132812 C 30.425781 1.398438 30.574219 1.761719 30.574219 2.144531 Z M 30.574219 2.144531 " fill-opacity="1" fill-rule="nonzero"/></g><g clip-path="url(#112f53eead)"><path fill="#000b6d" d="M 40.742188 13.558594 L 40.742188 11.347656 L 43.957031 11.347656 C 44.375 11.347656 44.757812 11.261719 45.097656 11.089844 C 45.441406 10.917969 45.710938 10.671875 45.90625 10.351562 C 46.105469 10.019531 46.203125 9.621094 46.203125 9.15625 C 46.203125 8.707031 46.105469 8.316406 45.90625 7.984375 C 45.710938 7.652344 45.441406 7.398438 45.097656 7.226562 C 44.757812 7.054688 44.375 6.96875 43.957031 6.96875 L 40.742188 6.96875 L 40.742188 4.757812 L 44.230469 4.757812 C 45.113281 4.757812 45.902344 4.9375 46.597656 5.296875 C 47.308594 5.652344 47.867188 6.164062 48.273438 6.828125 C 48.679688 7.480469 48.882812 8.253906 48.882812 9.15625 C 48.882812 10.058594 48.679688 10.84375 48.273438 11.507812 C 47.867188 12.15625 47.308594 12.660156 46.597656 13.019531 C 45.902344 13.378906 45.113281 13.558594 44.230469 13.558594 Z M 38.769531 18.753906 L 38.769531 4.757812 L 41.453125 4.757812 L 41.453125 18.753906 Z M 50.644531 18.753906 L 50.644531 9.136719 L 53.226562 9.136719 L 53.226562 18.753906 Z M 53.226562 13.4375 L 52.222656 12.761719 C 52.339844 11.582031 52.679688 10.652344 53.246094 9.972656 C 53.8125 9.285156 54.625 8.9375 55.691406 8.9375 C 56.152344 8.9375 56.566406 9.019531 56.933594 9.179688 C 57.300781 9.324219 57.636719 9.570312 57.9375 9.914062 L 56.320312 11.785156 C 56.175781 11.625 56 11.507812 55.789062 11.425781 C 55.59375 11.347656 55.363281 11.308594 55.097656 11.308594 C 54.546875 11.308594 54.09375 11.488281 53.738281 11.84375 C 53.398438 12.191406 53.226562 12.722656 53.226562 13.4375 Z M 63.128906 18.953125 C 62.132812 18.953125 61.242188 18.742188 60.46875 18.316406 C 59.691406 17.878906 59.074219 17.28125 58.617188 16.523438 C 58.167969 15.765625 57.945312 14.90625 57.945312 13.9375 C 57.945312 12.980469 58.160156 12.132812 58.59375 11.386719 C 59.042969 10.632812 59.648438 10.035156 60.410156 9.597656 C 61.171875 9.144531 62.019531 8.917969 62.953125 8.917969 C 63.871094 8.917969 64.679688 9.132812 65.378906 9.554688 C 66.085938 9.96875 66.640625 10.539062 67.035156 11.269531 C 67.441406 11.984375 67.644531 12.800781 67.644531 13.71875 C 67.644531 13.890625 67.632812 14.070312 67.605469 14.253906 C 67.59375 14.425781 67.558594 14.625 67.507812 14.851562 L 59.503906 14.871094 L 59.503906 12.921875 L 66.304688 12.902344 L 65.257812 13.71875 C 65.234375 13.144531 65.128906 12.667969 64.945312 12.285156 C 64.773438 11.898438 64.515625 11.605469 64.175781 11.40625 C 63.847656 11.195312 63.4375 11.089844 62.953125 11.089844 C 62.441406 11.089844 61.992188 11.207031 61.613281 11.449219 C 61.230469 11.671875 60.933594 12 60.726562 12.421875 C 60.527344 12.835938 60.429688 13.324219 60.429688 13.894531 C 60.429688 14.480469 60.535156 14.992188 60.746094 15.429688 C 60.96875 15.855469 61.285156 16.183594 61.691406 16.425781 C 62.097656 16.648438 62.570312 16.761719 63.109375 16.761719 C 63.597656 16.761719 64.035156 16.683594 64.429688 16.523438 C 64.824219 16.351562 65.167969 16.097656 65.457031 15.765625 L 66.976562 17.300781 C 66.515625 17.84375 65.949219 18.257812 65.277344 18.535156 C 64.621094 18.8125 63.90625 18.953125 63.128906 18.953125 Z M 72.515625 18.972656 C 71.976562 18.972656 71.445312 18.898438 70.917969 18.753906 C 70.40625 18.609375 69.933594 18.410156 69.5 18.15625 C 69.066406 17.890625 68.691406 17.574219 68.375 17.199219 L 69.914062 15.628906 C 70.242188 16 70.621094 16.277344 71.054688 16.464844 C 71.488281 16.648438 71.96875 16.742188 72.496094 16.742188 C 72.914062 16.742188 73.230469 16.683594 73.441406 16.5625 C 73.664062 16.445312 73.777344 16.265625 73.777344 16.027344 C 73.777344 15.761719 73.65625 15.554688 73.421875 15.410156 C 73.199219 15.261719 72.902344 15.144531 72.535156 15.050781 C 72.167969 14.945312 71.777344 14.832031 71.371094 14.710938 C 70.976562 14.578125 70.597656 14.414062 70.226562 14.214844 C 69.859375 14.003906 69.558594 13.71875 69.320312 13.359375 C 69.097656 12.988281 68.984375 12.507812 68.984375 11.925781 C 68.984375 11.316406 69.128906 10.785156 69.417969 10.332031 C 69.722656 9.882812 70.148438 9.53125 70.699219 9.277344 C 71.253906 9.023438 71.902344 8.898438 72.652344 8.898438 C 73.441406 8.898438 74.152344 9.039062 74.78125 9.316406 C 75.425781 9.597656 75.957031 10.015625 76.378906 10.570312 L 74.820312 12.144531 C 74.53125 11.785156 74.203125 11.527344 73.835938 11.367188 C 73.480469 11.207031 73.09375 11.128906 72.671875 11.128906 C 72.292969 11.128906 71.996094 11.1875 71.785156 11.308594 C 71.589844 11.425781 71.488281 11.59375 71.488281 11.804688 C 71.488281 12.042969 71.601562 12.230469 71.824219 12.363281 C 72.0625 12.496094 72.363281 12.617188 72.730469 12.722656 C 73.101562 12.8125 73.480469 12.925781 73.875 13.058594 C 74.28125 13.179688 74.664062 13.351562 75.019531 13.578125 C 75.386719 13.804688 75.683594 14.101562 75.90625 14.472656 C 76.140625 14.84375 76.261719 15.324219 76.261719 15.90625 C 76.261719 16.847656 75.925781 17.597656 75.253906 18.15625 C 74.585938 18.699219 73.671875 18.972656 72.515625 18.972656 Z M 82.496094 18.953125 C 81.523438 18.953125 80.652344 18.734375 79.875 18.296875 C 79.097656 17.859375 78.488281 17.261719 78.042969 16.503906 C 77.59375 15.746094 77.371094 14.898438 77.371094 13.957031 C 77.371094 13 77.59375 12.144531 78.042969 11.386719 C 78.488281 10.632812 79.097656 10.035156 79.875 9.597656 C 80.664062 9.144531 81.539062 8.917969 82.496094 8.917969 C 83.246094 8.917969 83.9375 9.058594 84.566406 9.335938 C 85.199219 9.617188 85.742188 10.015625 86.203125 10.53125 L 84.546875 12.222656 C 84.296875 11.945312 83.996094 11.734375 83.640625 11.585938 C 83.300781 11.441406 82.917969 11.367188 82.496094 11.367188 C 82.023438 11.367188 81.597656 11.480469 81.214844 11.707031 C 80.847656 11.917969 80.550781 12.21875 80.328125 12.601562 C 80.117188 12.972656 80.011719 13.417969 80.011719 13.9375 C 80.011719 14.441406 80.117188 14.890625 80.328125 15.289062 C 80.550781 15.675781 80.847656 15.980469 81.214844 16.207031 C 81.597656 16.417969 82.023438 16.523438 82.496094 16.523438 C 82.929688 16.523438 83.320312 16.449219 83.660156 16.304688 C 84.015625 16.144531 84.316406 15.921875 84.566406 15.628906 L 86.242188 17.320312 C 85.757812 17.851562 85.199219 18.257812 84.566406 18.535156 C 83.9375 18.8125 83.246094 18.953125 82.496094 18.953125 Z M 87.707031 18.753906 L 87.707031 9.136719 L 90.289062 9.136719 L 90.289062 18.753906 Z M 90.289062 13.4375 L 89.28125 12.761719 C 89.402344 11.582031 89.742188 10.652344 90.308594 9.972656 C 90.875 9.285156 91.6875 8.9375 92.753906 8.9375 C 93.214844 8.9375 93.628906 9.019531 93.996094 9.179688 C 94.363281 9.324219 94.699219 9.570312 95 9.914062 L 93.382812 11.785156 C 93.238281 11.625 93.0625 11.507812 92.851562 11.425781 C 92.65625 11.347656 92.425781 11.308594 92.160156 11.308594 C 91.609375 11.308594 91.15625 11.488281 90.800781 11.84375 C 90.460938 12.191406 90.289062 12.722656 90.289062 13.4375 Z M 95.90625 18.753906 L 95.90625 9.136719 L 98.511719 9.136719 L 98.511719 18.753906 Z M 97.210938 7.585938 C 96.789062 7.585938 96.441406 7.445312 96.164062 7.167969 C 95.886719 6.875 95.75 6.515625 95.75 6.09375 C 95.75 5.679688 95.886719 5.328125 96.164062 5.035156 C 96.441406 4.746094 96.789062 4.597656 97.210938 4.597656 C 97.644531 4.597656 97.992188 4.746094 98.253906 5.035156 C 98.53125 5.328125 98.667969 5.679688 98.667969 6.09375 C 98.667969 6.515625 98.53125 6.875 98.253906 7.167969 C 97.992188 7.445312 97.644531 7.585938 97.210938 7.585938 Z M 106.082031 18.953125 C 105.398438 18.953125 104.78125 18.8125 104.230469 18.535156 C 103.675781 18.242188 103.234375 17.851562 102.90625 17.359375 C 102.578125 16.867188 102.402344 16.304688 102.375 15.667969 L 102.375 12.261719 C 102.402344 11.625 102.578125 11.0625 102.90625 10.570312 C 103.25 10.066406 103.6875 9.667969 104.230469 9.378906 C 104.78125 9.085938 105.398438 8.9375 106.082031 8.9375 C 106.960938 8.9375 107.75 9.15625 108.449219 9.597656 C 109.144531 10.035156 109.691406 10.632812 110.082031 11.386719 C 110.492188 12.144531 110.695312 13 110.695312 13.957031 C 110.695312 14.898438 110.492188 15.746094 110.082031 16.503906 C 109.691406 17.261719 109.144531 17.859375 108.449219 18.296875 C 107.75 18.734375 106.960938 18.953125 106.082031 18.953125 Z M 105.628906 16.542969 C 106.101562 16.542969 106.523438 16.4375 106.890625 16.226562 C 107.257812 16 107.539062 15.695312 107.738281 15.308594 C 107.949219 14.910156 108.054688 14.453125 108.054688 13.9375 C 108.054688 13.429688 107.949219 12.988281 107.738281 12.601562 C 107.539062 12.203125 107.257812 11.898438 106.890625 11.6875 C 106.523438 11.460938 106.101562 11.347656 105.628906 11.347656 C 105.167969 11.347656 104.753906 11.460938 104.386719 11.6875 C 104.019531 11.898438 103.730469 12.203125 103.519531 12.601562 C 103.320312 12.988281 103.222656 13.429688 103.222656 13.9375 C 103.222656 14.453125 103.320312 14.910156 103.519531 15.308594 C 103.730469 15.695312 104.011719 16 104.367188 16.226562 C 104.734375 16.4375 105.15625 16.542969 105.628906 16.542969 Z M 100.796875 22.773438 L 100.796875 9.136719 L 103.378906 9.136719 L 103.378906 11.667969 L 102.945312 13.996094 L 103.359375 16.324219 L 103.359375 22.773438 Z M 113.558594 18.753906 L 113.558594 5.136719 L 116.140625 5.136719 L 116.140625 18.753906 Z M 111.328125 11.425781 L 111.328125 9.136719 L 118.367188 9.136719 L 118.367188 11.425781 Z M 124.066406 18.953125 C 123.105469 18.953125 122.238281 18.734375 121.460938 18.296875 C 120.699219 17.84375 120.089844 17.242188 119.628906 16.484375 C 119.183594 15.714844 118.957031 14.859375 118.957031 13.914062 C 118.957031 12.972656 119.183594 12.132812 119.628906 11.386719 C 120.074219 10.632812 120.6875 10.035156 121.460938 9.597656 C 122.238281 9.144531 123.097656 8.917969 124.042969 8.917969 C 125.019531 8.917969 125.886719 9.144531 126.648438 9.597656 C 127.421875 10.035156 128.035156 10.632812 128.480469 11.386719 C 128.925781 12.132812 129.152344 12.972656 129.152344 13.914062 C 129.152344 14.859375 128.925781 15.714844 128.480469 16.484375 C 128.035156 17.242188 127.421875 17.84375 126.648438 18.296875 C 125.886719 18.734375 125.023438 18.953125 124.066406 18.953125 Z M 124.042969 16.523438 C 124.53125 16.523438 124.957031 16.417969 125.328125 16.207031 C 125.707031 15.980469 125.996094 15.675781 126.195312 15.289062 C 126.402344 14.890625 126.507812 14.441406 126.507812 13.9375 C 126.507812 13.429688 126.402344 12.988281 126.195312 12.601562 C 125.984375 12.21875 125.695312 11.917969 125.328125 11.707031 C 124.957031 11.480469 124.53125 11.367188 124.042969 11.367188 C 123.570312 11.367188 123.152344 11.480469 122.78125 11.707031 C 122.414062 11.917969 122.125 12.21875 121.914062 12.601562 C 121.707031 12.988281 121.601562 13.429688 121.601562 13.9375 C 121.601562 14.441406 121.707031 14.890625 121.914062 15.289062 C 122.125 15.675781 122.414062 15.980469 122.78125 16.207031 C 123.152344 16.417969 123.570312 16.523438 124.042969 16.523438 Z M 124.042969 16.523438 " fill-opacity="1" fill-rule="nonzero"/></g><path fill="#5f5f5f" d="M 39.1875 27.464844 L 39.1875 26.558594 L 40.511719 26.558594 C 40.847656 26.558594 41.140625 26.492188 41.390625 26.351562 C 41.640625 26.207031 41.835938 26.003906 41.972656 25.746094 C 42.117188 25.488281 42.1875 25.179688 42.1875 24.828125 C 42.1875 24.484375 42.117188 24.1875 41.972656 23.933594 C 41.832031 23.671875 41.632812 23.472656 41.382812 23.335938 C 41.132812 23.191406 40.839844 23.117188 40.511719 23.117188 L 39.164062 23.117188 L 39.164062 22.214844 L 40.527344 22.214844 C 40.910156 22.214844 41.265625 22.28125 41.589844 22.410156 C 41.921875 22.539062 42.207031 22.722656 42.449219 22.960938 C 42.695312 23.195312 42.882812 23.472656 43.015625 23.789062 C 43.15625 24.109375 43.222656 24.457031 43.222656 24.835938 C 43.222656 25.214844 43.15625 25.566406 43.015625 25.886719 C 42.882812 26.207031 42.695312 26.484375 42.453125 26.722656 C 42.214844 26.957031 41.925781 27.140625 41.597656 27.269531 C 41.273438 27.398438 40.917969 27.464844 40.539062 27.464844 Z M 38.5 27.464844 L 38.5 22.214844 L 39.503906 22.214844 L 39.503906 27.464844 Z M 45.414062 27.539062 C 45.085938 27.539062 44.792969 27.457031 44.53125 27.292969 C 44.273438 27.128906 44.066406 26.902344 43.917969 26.621094 C 43.773438 26.335938 43.699219 26.015625 43.699219 25.664062 C 43.699219 25.304688 43.773438 24.984375 43.917969 24.699219 C 44.066406 24.417969 44.273438 24.195312 44.53125 24.027344 C 44.792969 23.863281 45.085938 23.78125 45.414062 23.78125 C 45.667969 23.78125 45.898438 23.835938 46.101562 23.941406 C 46.300781 24.042969 46.460938 24.191406 46.582031 24.378906 C 46.703125 24.5625 46.769531 24.773438 46.78125 25.007812 L 46.78125 26.304688 C 46.769531 26.546875 46.703125 26.757812 46.582031 26.941406 C 46.460938 27.125 46.300781 27.273438 46.101562 27.382812 C 45.898438 27.484375 45.667969 27.539062 45.414062 27.539062 Z M 45.589844 26.632812 C 45.863281 26.632812 46.082031 26.546875 46.25 26.367188 C 46.414062 26.183594 46.5 25.945312 46.5 25.65625 C 46.5 25.46875 46.460938 25.300781 46.382812 25.15625 C 46.308594 25.007812 46.203125 24.894531 46.0625 24.8125 C 45.929688 24.726562 45.773438 24.6875 45.589844 24.6875 C 45.414062 24.6875 45.253906 24.726562 45.117188 24.8125 C 44.984375 24.894531 44.878906 25.007812 44.800781 25.15625 C 44.726562 25.300781 44.6875 25.46875 44.6875 25.65625 C 44.6875 25.851562 44.726562 26.023438 44.800781 26.171875 C 44.878906 26.316406 44.984375 26.429688 45.117188 26.515625 C 45.253906 26.59375 45.414062 26.632812 45.589844 26.632812 Z M 46.449219 27.464844 L 46.449219 26.492188 L 46.601562 25.613281 L 46.449219 24.746094 L 46.449219 23.859375 L 47.410156 23.859375 L 47.410156 27.464844 Z M 49.492188 27.546875 C 49.289062 27.546875 49.089844 27.519531 48.894531 27.464844 C 48.703125 27.410156 48.523438 27.332031 48.363281 27.238281 C 48.199219 27.140625 48.058594 27.019531 47.941406 26.882812 L 48.515625 26.292969 C 48.640625 26.429688 48.785156 26.535156 48.945312 26.605469 C 49.109375 26.675781 49.289062 26.710938 49.484375 26.710938 C 49.644531 26.710938 49.761719 26.6875 49.839844 26.640625 C 49.925781 26.597656 49.964844 26.53125 49.964844 26.441406 C 49.964844 26.339844 49.921875 26.265625 49.832031 26.210938 C 49.75 26.15625 49.636719 26.109375 49.5 26.074219 C 49.363281 26.035156 49.21875 25.992188 49.0625 25.949219 C 48.917969 25.898438 48.773438 25.835938 48.636719 25.761719 C 48.496094 25.679688 48.382812 25.574219 48.296875 25.441406 C 48.210938 25.300781 48.167969 25.121094 48.167969 24.902344 C 48.167969 24.671875 48.222656 24.472656 48.332031 24.304688 C 48.445312 24.136719 48.605469 24.003906 48.8125 23.910156 C 49.019531 23.816406 49.265625 23.769531 49.542969 23.769531 C 49.839844 23.769531 50.105469 23.820312 50.34375 23.925781 C 50.585938 24.027344 50.785156 24.1875 50.941406 24.394531 L 50.359375 24.984375 C 50.25 24.851562 50.125 24.753906 49.988281 24.695312 C 49.855469 24.632812 49.710938 24.605469 49.550781 24.605469 C 49.410156 24.605469 49.296875 24.625 49.21875 24.671875 C 49.144531 24.714844 49.109375 24.777344 49.109375 24.859375 C 49.109375 24.949219 49.152344 25.015625 49.234375 25.066406 C 49.324219 25.117188 49.4375 25.160156 49.574219 25.203125 C 49.710938 25.234375 49.855469 25.277344 50.003906 25.328125 C 50.15625 25.371094 50.300781 25.4375 50.433594 25.523438 C 50.570312 25.605469 50.679688 25.71875 50.765625 25.859375 C 50.851562 25.996094 50.898438 26.175781 50.898438 26.394531 C 50.898438 26.75 50.773438 27.03125 50.519531 27.238281 C 50.269531 27.441406 49.925781 27.546875 49.492188 27.546875 Z M 53.953125 27.464844 L 53.953125 25.394531 C 53.953125 25.179688 53.886719 25.007812 53.753906 24.871094 C 53.621094 24.738281 53.449219 24.671875 53.238281 24.671875 C 53.097656 24.671875 52.976562 24.699219 52.867188 24.761719 C 52.757812 24.820312 52.671875 24.90625 52.609375 25.015625 C 52.550781 25.125 52.519531 25.25 52.519531 25.394531 L 52.140625 25.203125 C 52.140625 24.917969 52.203125 24.671875 52.320312 24.460938 C 52.4375 24.25 52.601562 24.082031 52.808594 23.960938 C 53.019531 23.84375 53.261719 23.78125 53.53125 23.78125 C 53.804688 23.78125 54.042969 23.84375 54.25 23.960938 C 54.460938 24.082031 54.625 24.246094 54.746094 24.453125 C 54.863281 24.664062 54.921875 24.90625 54.921875 25.179688 L 54.921875 27.464844 Z M 51.550781 27.464844 L 51.550781 22.066406 L 52.519531 22.066406 L 52.519531 27.464844 Z M 57.683594 27.539062 C 57.425781 27.539062 57.195312 27.484375 56.988281 27.375 C 56.78125 27.265625 56.617188 27.113281 56.492188 26.925781 C 56.371094 26.738281 56.304688 26.523438 56.292969 26.292969 L 56.292969 25.007812 C 56.304688 24.773438 56.371094 24.5625 56.492188 24.378906 C 56.621094 24.191406 56.789062 24.042969 56.996094 23.941406 C 57.203125 23.835938 57.433594 23.78125 57.683594 23.78125 C 58.015625 23.78125 58.308594 23.863281 58.570312 24.027344 C 58.832031 24.195312 59.035156 24.417969 59.183594 24.699219 C 59.335938 24.984375 59.414062 25.304688 59.414062 25.664062 C 59.414062 26.015625 59.335938 26.335938 59.183594 26.621094 C 59.035156 26.902344 58.832031 27.128906 58.570312 27.292969 C 58.308594 27.457031 58.015625 27.539062 57.683594 27.539062 Z M 57.519531 26.632812 C 57.699219 26.632812 57.855469 26.59375 57.988281 26.515625 C 58.125 26.429688 58.230469 26.316406 58.304688 26.171875 C 58.382812 26.023438 58.421875 25.851562 58.421875 25.65625 C 58.421875 25.46875 58.382812 25.300781 58.304688 25.15625 C 58.230469 25.007812 58.125 24.894531 57.988281 24.8125 C 57.847656 24.726562 57.691406 24.6875 57.515625 24.6875 C 57.335938 24.6875 57.179688 24.726562 57.039062 24.8125 C 56.90625 24.894531 56.800781 25.007812 56.722656 25.15625 C 56.648438 25.300781 56.613281 25.46875 56.613281 25.65625 C 56.613281 25.851562 56.648438 26.023438 56.722656 26.171875 C 56.800781 26.316406 56.910156 26.429688 57.046875 26.515625 C 57.1875 26.59375 57.34375 26.632812 57.519531 26.632812 Z M 55.703125 27.464844 L 55.703125 22.066406 L 56.671875 22.066406 L 56.671875 24.746094 L 56.507812 25.613281 L 56.664062 26.492188 L 56.664062 27.464844 Z M 61.726562 27.539062 C 61.367188 27.539062 61.042969 27.457031 60.75 27.292969 C 60.464844 27.121094 60.234375 26.894531 60.0625 26.613281 C 59.894531 26.324219 59.8125 26.003906 59.8125 25.648438 C 59.8125 25.296875 59.894531 24.980469 60.0625 24.699219 C 60.230469 24.417969 60.460938 24.195312 60.75 24.027344 C 61.042969 23.859375 61.363281 23.773438 61.71875 23.773438 C 62.085938 23.773438 62.410156 23.859375 62.695312 24.027344 C 62.988281 24.195312 63.214844 24.417969 63.382812 24.699219 C 63.550781 24.980469 63.632812 25.296875 63.632812 25.648438 C 63.632812 26.003906 63.550781 26.324219 63.382812 26.613281 C 63.214844 26.894531 62.988281 27.121094 62.695312 27.292969 C 62.410156 27.457031 62.085938 27.539062 61.726562 27.539062 Z M 61.71875 26.628906 C 61.902344 26.628906 62.0625 26.585938 62.199219 26.507812 C 62.34375 26.421875 62.453125 26.308594 62.527344 26.164062 C 62.605469 26.015625 62.644531 25.847656 62.644531 25.65625 C 62.644531 25.46875 62.605469 25.300781 62.527344 25.15625 C 62.445312 25.011719 62.339844 24.898438 62.199219 24.820312 C 62.0625 24.734375 61.902344 24.695312 61.71875 24.695312 C 61.542969 24.695312 61.382812 24.734375 61.246094 24.820312 C 61.109375 24.898438 61 25.011719 60.921875 25.15625 C 60.84375 25.300781 60.804688 25.46875 60.804688 25.65625 C 60.804688 25.847656 60.84375 26.015625 60.921875 26.164062 C 61 26.308594 61.109375 26.421875 61.246094 26.507812 C 61.382812 26.585938 61.542969 26.628906 61.71875 26.628906 Z M 65.75 27.539062 C 65.425781 27.539062 65.132812 27.457031 64.871094 27.292969 C 64.609375 27.128906 64.40625 26.902344 64.257812 26.621094 C 64.109375 26.335938 64.035156 26.015625 64.035156 25.664062 C 64.035156 25.304688 64.109375 24.984375 64.257812 24.699219 C 64.40625 24.417969 64.609375 24.195312 64.871094 24.027344 C 65.132812 23.863281 65.425781 23.78125 65.75 23.78125 C 66.007812 23.78125 66.238281 23.835938 66.4375 23.941406 C 66.640625 24.042969 66.800781 24.191406 66.917969 24.378906 C 67.042969 24.5625 67.109375 24.773438 67.121094 25.007812 L 67.121094 26.304688 C 67.109375 26.546875 67.042969 26.757812 66.917969 26.941406 C 66.800781 27.125 66.640625 27.273438 66.4375 27.382812 C 66.238281 27.484375 66.007812 27.539062 65.75 27.539062 Z M 65.929688 26.632812 C 66.199219 26.632812 66.417969 26.546875 66.585938 26.367188 C 66.753906 26.183594 66.839844 25.945312 66.839844 25.65625 C 66.839844 25.46875 66.800781 25.300781 66.71875 25.15625 C 66.644531 25.007812 66.539062 24.894531 66.402344 24.8125 C 66.269531 24.726562 66.113281 24.6875 65.929688 24.6875 C 65.75 24.6875 65.59375 24.726562 65.457031 24.8125 C 65.324219 24.894531 65.21875 25.007812 65.136719 25.15625 C 65.0625 25.300781 65.027344 25.46875 65.027344 25.65625 C 65.027344 25.851562 65.0625 26.023438 65.136719 26.171875 C 65.21875 26.316406 65.324219 26.429688 65.457031 26.515625 C 65.59375 26.59375 65.75 26.632812 65.929688 26.632812 Z M 66.785156 27.464844 L 66.785156 26.492188 L 66.941406 25.613281 L 66.785156 24.746094 L 66.785156 23.859375 L 67.746094 23.859375 L 67.746094 27.464844 Z M 68.605469 27.464844 L 68.605469 23.859375 L 69.574219 23.859375 L 69.574219 27.464844 Z M 69.574219 25.46875 L 69.195312 25.214844 C 69.238281 24.773438 69.367188 24.425781 69.582031 24.171875 C 69.792969 23.914062 70.097656 23.78125 70.496094 23.78125 C 70.667969 23.78125 70.824219 23.8125 70.960938 23.871094 C 71.101562 23.925781 71.226562 24.019531 71.339844 24.148438 L 70.734375 24.851562 C 70.679688 24.789062 70.613281 24.746094 70.535156 24.714844 C 70.460938 24.6875 70.375 24.671875 70.273438 24.671875 C 70.066406 24.671875 69.898438 24.738281 69.765625 24.871094 C 69.636719 25.003906 69.574219 25.203125 69.574219 25.46875 Z M 73.085938 27.539062 C 72.757812 27.539062 72.460938 27.457031 72.199219 27.292969 C 71.9375 27.128906 71.730469 26.902344 71.578125 26.621094 C 71.429688 26.335938 71.355469 26.015625 71.355469 25.664062 C 71.355469 25.304688 71.429688 24.984375 71.578125 24.699219 C 71.730469 24.417969 71.9375 24.195312 72.191406 24.027344 C 72.453125 23.863281 72.75 23.78125 73.085938 23.78125 C 73.34375 23.78125 73.574219 23.835938 73.773438 23.941406 C 73.980469 24.042969 74.148438 24.191406 74.269531 24.378906 C 74.398438 24.5625 74.46875 24.773438 74.476562 25.007812 L 74.476562 26.292969 C 74.46875 26.523438 74.402344 26.738281 74.277344 26.925781 C 74.152344 27.113281 73.988281 27.265625 73.78125 27.375 C 73.574219 27.484375 73.34375 27.539062 73.085938 27.539062 Z M 73.25 26.632812 C 73.433594 26.632812 73.589844 26.59375 73.722656 26.515625 C 73.859375 26.429688 73.96875 26.316406 74.039062 26.171875 C 74.121094 26.023438 74.160156 25.851562 74.160156 25.65625 C 74.160156 25.46875 74.121094 25.300781 74.039062 25.15625 C 73.96875 25.007812 73.859375 24.894531 73.722656 24.8125 C 73.589844 24.726562 73.433594 24.6875 73.257812 24.6875 C 73.074219 24.6875 72.914062 24.726562 72.777344 24.8125 C 72.644531 24.898438 72.539062 25.011719 72.457031 25.15625 C 72.382812 25.300781 72.347656 25.46875 72.347656 25.65625 C 72.347656 25.851562 72.382812 26.023438 72.457031 26.171875 C 72.539062 26.316406 72.644531 26.429688 72.785156 26.515625 C 72.921875 26.59375 73.078125 26.632812 73.25 26.632812 Z M 75.070312 27.464844 L 74.105469 27.464844 L 74.105469 26.492188 L 74.261719 25.613281 L 74.101562 24.746094 L 74.101562 22.066406 L 75.070312 22.066406 Z M 78.210938 25.515625 L 78.210938 24.6875 L 79.417969 24.6875 C 79.574219 24.6875 79.71875 24.652344 79.847656 24.589844 C 79.972656 24.523438 80.074219 24.433594 80.148438 24.3125 C 80.222656 24.1875 80.261719 24.039062 80.261719 23.863281 C 80.261719 23.695312 80.222656 23.550781 80.148438 23.425781 C 80.074219 23.300781 79.972656 23.207031 79.847656 23.140625 C 79.71875 23.074219 79.574219 23.042969 79.417969 23.042969 L 78.210938 23.042969 L 78.210938 22.214844 L 79.519531 22.214844 C 79.851562 22.214844 80.148438 22.28125 80.40625 22.417969 C 80.675781 22.550781 80.882812 22.742188 81.035156 22.992188 C 81.1875 23.234375 81.265625 23.527344 81.265625 23.863281 C 81.265625 24.203125 81.1875 24.496094 81.035156 24.746094 C 80.882812 24.988281 80.675781 25.179688 80.40625 25.3125 C 80.148438 25.449219 79.851562 25.515625 79.519531 25.515625 Z M 77.472656 27.464844 L 77.472656 22.214844 L 78.480469 22.214844 L 78.480469 27.464844 Z M 83.253906 27.539062 C 82.925781 27.539062 82.632812 27.457031 82.371094 27.292969 C 82.113281 27.128906 81.90625 26.902344 81.757812 26.621094 C 81.613281 26.335938 81.539062 26.015625 81.539062 25.664062 C 81.539062 25.304688 81.613281 24.984375 81.757812 24.699219 C 81.90625 24.417969 82.113281 24.195312 82.371094 24.027344 C 82.632812 23.863281 82.925781 23.78125 83.253906 23.78125 C 83.507812 23.78125 83.738281 23.835938 83.941406 23.941406 C 84.140625 24.042969 84.300781 24.191406 84.421875 24.378906 C 84.542969 24.5625 84.609375 24.773438 84.621094 25.007812 L 84.621094 26.304688 C 84.609375 26.546875 84.542969 26.757812 84.421875 26.941406 C 84.300781 27.125 84.140625 27.273438 83.941406 27.382812 C 83.738281 27.484375 83.507812 27.539062 83.253906 27.539062 Z M 83.429688 26.632812 C 83.703125 26.632812 83.921875 26.546875 84.089844 26.367188 C 84.253906 26.183594 84.339844 25.945312 84.339844 25.65625 C 84.339844 25.46875 84.300781 25.300781 84.222656 25.15625 C 84.148438 25.007812 84.042969 24.894531 83.902344 24.8125 C 83.769531 24.726562 83.613281 24.6875 83.429688 24.6875 C 83.253906 24.6875 83.09375 24.726562 82.957031 24.8125 C 82.824219 24.894531 82.71875 25.007812 82.640625 25.15625 C 82.566406 25.300781 82.527344 25.46875 82.527344 25.65625 C 82.527344 25.851562 82.566406 26.023438 82.640625 26.171875 C 82.71875 26.316406 82.824219 26.429688 82.957031 26.515625 C 83.09375 26.59375 83.253906 26.632812 83.429688 26.632812 Z M 84.289062 27.464844 L 84.289062 26.492188 L 84.441406 25.613281 L 84.289062 24.746094 L 84.289062 23.859375 L 85.25 23.859375 L 85.25 27.464844 Z M 88.507812 27.464844 L 88.507812 25.394531 C 88.507812 25.179688 88.441406 25.007812 88.308594 24.871094 C 88.175781 24.738281 88.003906 24.671875 87.792969 24.671875 C 87.652344 24.671875 87.53125 24.699219 87.421875 24.761719 C 87.3125 24.820312 87.226562 24.90625 87.164062 25.015625 C 87.105469 25.125 87.074219 25.25 87.074219 25.394531 L 86.699219 25.203125 C 86.699219 24.917969 86.757812 24.671875 86.875 24.460938 C 86.996094 24.25 87.164062 24.082031 87.378906 23.960938 C 87.59375 23.84375 87.839844 23.78125 88.109375 23.78125 C 88.371094 23.78125 88.605469 23.851562 88.8125 23.984375 C 89.019531 24.113281 89.179688 24.285156 89.300781 24.5 C 89.417969 24.707031 89.476562 24.933594 89.476562 25.179688 L 89.476562 27.464844 Z M 86.105469 27.464844 L 86.105469 23.859375 L 87.074219 23.859375 L 87.074219 27.464844 Z M 91.964844 27.539062 C 91.589844 27.539062 91.257812 27.457031 90.96875 27.300781 C 90.675781 27.136719 90.445312 26.910156 90.273438 26.628906 C 90.105469 26.34375 90.019531 26.019531 90.019531 25.65625 C 90.019531 25.296875 90.101562 24.980469 90.265625 24.699219 C 90.433594 24.417969 90.660156 24.195312 90.945312 24.027344 C 91.230469 23.859375 91.546875 23.773438 91.898438 23.773438 C 92.242188 23.773438 92.546875 23.855469 92.808594 24.015625 C 93.074219 24.167969 93.28125 24.382812 93.429688 24.65625 C 93.582031 24.925781 93.65625 25.230469 93.65625 25.574219 C 93.65625 25.640625 93.652344 25.707031 93.644531 25.777344 C 93.636719 25.839844 93.625 25.914062 93.605469 26 L 90.605469 26.007812 L 90.605469 25.277344 L 93.15625 25.269531 L 92.761719 25.574219 C 92.753906 25.359375 92.714844 25.179688 92.644531 25.035156 C 92.582031 24.894531 92.484375 24.78125 92.355469 24.707031 C 92.234375 24.628906 92.082031 24.589844 91.898438 24.589844 C 91.707031 24.589844 91.539062 24.632812 91.394531 24.722656 C 91.253906 24.808594 91.140625 24.929688 91.0625 25.089844 C 90.988281 25.242188 90.953125 25.425781 90.953125 25.640625 C 90.953125 25.859375 90.992188 26.050781 91.070312 26.214844 C 91.152344 26.375 91.273438 26.5 91.425781 26.589844 C 91.578125 26.675781 91.753906 26.714844 91.957031 26.714844 C 92.140625 26.714844 92.304688 26.6875 92.453125 26.628906 C 92.601562 26.5625 92.730469 26.46875 92.835938 26.34375 L 93.40625 26.917969 C 93.234375 27.121094 93.023438 27.277344 92.769531 27.382812 C 92.523438 27.484375 92.253906 27.539062 91.964844 27.539062 Z M 94.257812 27.464844 L 94.257812 22.066406 L 95.226562 22.066406 L 95.226562 27.464844 Z M 94.257812 27.464844 " fill-opacity="1" fill-rule="nonzero"/><g clip-path="url(#3b478c0135)"><path fill="#ffffff" d="M 36.277344 10.167969 C 36.277344 5.355469 40.253906 1.453125 45.160156 1.453125 L 106.511719 1.453125 C 111.414062 1.453125 115.390625 5.355469 115.390625 10.167969 L 115.390625 12.335938 C 115.390625 17.148438 111.417969 21.046875 106.515625 21.046875 L 45.160156 21.046875 C 40.253906 21.046875 36.277344 17.144531 36.277344 12.332031 Z M 36.277344 10.167969 " fill-opacity="1" fill-rule="nonzero"/></g><g clip-path="url(#481f3969c3)"><path fill="#ffffff" d="M 96.957031 13.265625 C 96.957031 8.453125 100.929688 4.554688 105.835938 4.554688 L 167.1875 4.554688 C 172.09375 4.554688 176.070312 8.453125 176.070312 13.265625 L 176.070312 15.4375 C 176.070312 20.246094 172.09375 24.144531 167.191406 24.144531 L 105.835938 24.144531 C 100.929688 24.144531 96.957031 20.246094 96.957031 15.433594 Z M 96.957031 13.265625 " fill-opacity="1" fill-rule="nonzero"/></g><g fill="#000b6d" fill-opacity="1"><g transform="translate(34.822836, 19.063124)"><g><path d="M 8.109375 -13.890625 C 9.523438 -13.890625 10.789062 -13.582031 11.90625 -12.96875 C 13.019531 -12.363281 13.890625 -11.519531 14.515625 -10.4375 C 15.148438 -9.351562 15.46875 -8.140625 15.46875 -6.796875 C 15.46875 -5.640625 15.234375 -4.578125 14.765625 -3.609375 C 14.304688 -2.640625 13.65625 -1.828125 12.8125 -1.171875 C 11.976562 -0.523438 11.003906 -0.09375 9.890625 0.125 C 10.148438 0.945312 10.617188 1.609375 11.296875 2.109375 C 11.972656 2.617188 12.800781 2.875 13.78125 2.875 C 14.125 2.875 14.453125 2.835938 14.765625 2.765625 L 14.765625 3.328125 C 13.929688 3.585938 13.019531 3.71875 12.03125 3.71875 C 10.71875 3.71875 9.578125 3.40625 8.609375 2.78125 C 7.648438 2.15625 6.929688 1.269531 6.453125 0.125 C 5.234375 -0.101562 4.203125 -0.554688 3.359375 -1.234375 C 2.515625 -1.910156 1.878906 -2.734375 1.453125 -3.703125 C 1.023438 -4.679688 0.8125 -5.71875 0.8125 -6.8125 C 0.8125 -8.164062 1.125 -9.378906 1.75 -10.453125 C 2.375 -11.535156 3.238281 -12.378906 4.34375 -12.984375 C 5.457031 -13.585938 6.710938 -13.890625 8.109375 -13.890625 Z M 4.328125 -6.84375 C 4.328125 -5.757812 4.457031 -4.726562 4.71875 -3.75 C 4.976562 -2.78125 5.390625 -1.984375 5.953125 -1.359375 C 6.523438 -0.734375 7.242188 -0.421875 8.109375 -0.421875 C 8.878906 -0.421875 9.550781 -0.671875 10.125 -1.171875 C 10.695312 -1.679688 11.140625 -2.40625 11.453125 -3.34375 C 11.773438 -4.289062 11.9375 -5.398438 11.9375 -6.671875 C 11.9375 -8.734375 11.59375 -10.335938 10.90625 -11.484375 C 10.226562 -12.628906 9.304688 -13.203125 8.140625 -13.203125 C 7.421875 -13.203125 6.773438 -12.96875 6.203125 -12.5 C 5.628906 -12.039062 5.171875 -11.332031 4.828125 -10.375 C 4.492188 -9.425781 4.328125 -8.25 4.328125 -6.84375 Z M 4.328125 -6.84375 "/></g></g></g><g fill="#000b6d" fill-opacity="1"><g transform="translate(51.11164, 19.063124)"><g><path d="M 3.765625 -2.71875 C 3.765625 -2.132812 3.832031 -1.710938 3.96875 -1.453125 C 4.101562 -1.191406 4.320312 -1.0625 4.625 -1.0625 C 4.90625 -1.0625 5.179688 -1.164062 5.453125 -1.375 C 5.734375 -1.59375 5.984375 -1.882812 6.203125 -2.25 L 6.203125 -7.71875 C 6.203125 -8.101562 6.109375 -8.375 5.921875 -8.53125 C 5.734375 -8.6875 5.441406 -8.785156 5.046875 -8.828125 L 5.046875 -9.1875 L 8.90625 -9.1875 L 8.90625 -1.09375 C 8.90625 -0.65625 9.128906 -0.410156 9.578125 -0.359375 L 9.578125 0 L 6.203125 0 L 6.203125 -1.1875 C 5.828125 -0.75 5.414062 -0.394531 4.96875 -0.125 C 4.519531 0.144531 4.054688 0.28125 3.578125 0.28125 C 2.804688 0.28125 2.191406 0.0234375 1.734375 -0.484375 C 1.273438 -0.992188 1.046875 -1.671875 1.046875 -2.515625 L 1.046875 -7.578125 C 1.046875 -7.992188 0.992188 -8.289062 0.890625 -8.46875 C 0.785156 -8.65625 0.585938 -8.773438 0.296875 -8.828125 L 0.296875 -9.1875 L 3.765625 -9.1875 Z M 3.765625 -2.71875 "/></g></g></g><g fill="#000b6d" fill-opacity="1"><g transform="translate(61.007633, 19.063124)"><g><path d="M 2.796875 -13.890625 C 3.210938 -13.890625 3.566406 -13.738281 3.859375 -13.4375 C 4.160156 -13.144531 4.3125 -12.789062 4.3125 -12.375 C 4.3125 -11.945312 4.160156 -11.582031 3.859375 -11.28125 C 3.566406 -10.976562 3.210938 -10.828125 2.796875 -10.828125 C 2.367188 -10.828125 2.003906 -10.976562 1.703125 -11.28125 C 1.398438 -11.582031 1.25 -11.945312 1.25 -12.375 C 1.25 -12.789062 1.398438 -13.144531 1.703125 -13.4375 C 2.003906 -13.738281 2.367188 -13.890625 2.796875 -13.890625 Z M 4.09375 -1.5 C 4.09375 -0.75 4.425781 -0.367188 5.09375 -0.359375 L 5.09375 0 L 0.234375 0 L 0.234375 -0.359375 C 0.640625 -0.359375 0.929688 -0.445312 1.109375 -0.625 C 1.296875 -0.8125 1.390625 -1.140625 1.390625 -1.609375 L 1.390625 -7.609375 C 1.390625 -8.035156 1.300781 -8.34375 1.125 -8.53125 C 0.957031 -8.726562 0.660156 -8.828125 0.234375 -8.828125 L 0.234375 -9.1875 L 4.09375 -9.1875 Z M 4.09375 -1.5 "/></g></g></g><g fill="#000b6d" fill-opacity="1"><g transform="translate(66.371262, 19.063124)"><g><path d="M 4.984375 -9.40625 C 5.566406 -9.40625 6.101562 -9.296875 6.59375 -9.078125 C 7.082031 -8.867188 7.46875 -8.585938 7.75 -8.234375 C 8.03125 -7.890625 8.171875 -7.507812 8.171875 -7.09375 C 8.171875 -6.75 8.054688 -6.460938 7.828125 -6.234375 C 7.597656 -6.015625 7.3125 -5.90625 6.96875 -5.90625 C 6.46875 -5.90625 6.078125 -6.117188 5.796875 -6.546875 C 5.691406 -6.710938 5.617188 -6.875 5.578125 -7.03125 C 5.535156 -7.1875 5.503906 -7.378906 5.484375 -7.609375 C 5.453125 -7.828125 5.421875 -8 5.390625 -8.125 C 5.359375 -8.25 5.296875 -8.359375 5.203125 -8.453125 C 5.035156 -8.617188 4.828125 -8.703125 4.578125 -8.703125 C 4.046875 -8.703125 3.660156 -8.421875 3.421875 -7.859375 C 3.179688 -7.304688 3.0625 -6.632812 3.0625 -5.84375 C 3.0625 -5.207031 3.15625 -4.535156 3.34375 -3.828125 C 3.539062 -3.117188 3.859375 -2.507812 4.296875 -2 C 4.734375 -1.5 5.285156 -1.25 5.953125 -1.25 C 6.378906 -1.25 6.742188 -1.316406 7.046875 -1.453125 C 7.347656 -1.585938 7.703125 -1.875 8.109375 -2.3125 L 8.4375 -2.09375 C 8.007812 -1.332031 7.472656 -0.742188 6.828125 -0.328125 C 6.191406 0.078125 5.476562 0.28125 4.6875 0.28125 C 3.882812 0.28125 3.160156 0.0820312 2.515625 -0.3125 C 1.878906 -0.707031 1.378906 -1.257812 1.015625 -1.96875 C 0.648438 -2.675781 0.46875 -3.476562 0.46875 -4.375 C 0.46875 -5.3125 0.664062 -6.164062 1.0625 -6.9375 C 1.457031 -7.707031 2 -8.3125 2.6875 -8.75 C 3.375 -9.1875 4.140625 -9.40625 4.984375 -9.40625 Z M 4.984375 -9.40625 "/></g></g></g><g fill="#000b6d" fill-opacity="1"><g transform="translate(75.040151, 19.063124)"><g><path d="M 4.203125 -4.546875 L 6.078125 -6.734375 C 6.421875 -7.128906 6.640625 -7.414062 6.734375 -7.59375 C 6.835938 -7.78125 6.890625 -7.960938 6.890625 -8.140625 C 6.890625 -8.390625 6.800781 -8.566406 6.625 -8.671875 C 6.457031 -8.773438 6.195312 -8.828125 5.84375 -8.828125 L 5.84375 -9.1875 L 9.796875 -9.1875 L 9.796875 -8.828125 C 9.398438 -8.773438 9.050781 -8.660156 8.75 -8.484375 C 8.445312 -8.316406 8.132812 -8.066406 7.8125 -7.734375 C 7.5 -7.410156 7 -6.851562 6.3125 -6.0625 L 8.765625 -2.296875 C 9.234375 -1.585938 9.601562 -1.085938 9.875 -0.796875 C 10.144531 -0.515625 10.394531 -0.367188 10.625 -0.359375 L 10.625 0 L 6.078125 0 L 6.078125 -0.359375 C 6.285156 -0.378906 6.429688 -0.414062 6.515625 -0.46875 C 6.609375 -0.519531 6.65625 -0.609375 6.65625 -0.734375 C 6.65625 -0.847656 6.566406 -1.050781 6.390625 -1.34375 L 4.625 -4.125 L 4.203125 -3.625 L 4.203125 -1.546875 C 4.203125 -1.097656 4.285156 -0.789062 4.453125 -0.625 C 4.628906 -0.457031 4.914062 -0.367188 5.3125 -0.359375 L 5.3125 0 L 0.28125 0 L 0.28125 -0.359375 C 0.769531 -0.367188 1.09375 -0.457031 1.25 -0.625 C 1.40625 -0.789062 1.484375 -1.109375 1.484375 -1.578125 L 1.484375 -12 C 1.484375 -12.457031 1.394531 -12.78125 1.21875 -12.96875 C 1.039062 -13.15625 0.726562 -13.25 0.28125 -13.25 L 0.28125 -13.59375 L 4.203125 -13.59375 Z M 4.203125 -4.546875 "/></g></g></g><g fill="#000b6d" fill-opacity="1"><g transform="translate(85.965327, 19.063124)"><g><path d="M 14.578125 -6.71875 C 14.578125 -5.3125 14.273438 -4.097656 13.671875 -3.078125 C 13.066406 -2.066406 12.242188 -1.300781 11.203125 -0.78125 C 10.171875 -0.257812 9.023438 0 7.765625 0 L 0.34375 0 L 0.34375 -0.359375 C 0.820312 -0.359375 1.1875 -0.394531 1.4375 -0.46875 C 1.695312 -0.539062 1.890625 -0.691406 2.015625 -0.921875 C 2.140625 -1.160156 2.203125 -1.539062 2.203125 -2.0625 L 2.203125 -11.515625 C 2.203125 -12.035156 2.132812 -12.414062 2 -12.65625 C 1.863281 -12.90625 1.671875 -13.066406 1.421875 -13.140625 C 1.171875 -13.210938 0.8125 -13.25 0.34375 -13.25 L 0.34375 -13.59375 L 7.4375 -13.59375 C 8.738281 -13.59375 9.925781 -13.332031 11 -12.8125 C 12.082031 -12.289062 12.945312 -11.507812 13.59375 -10.46875 C 14.25 -9.4375 14.578125 -8.1875 14.578125 -6.71875 Z M 6.890625 -0.6875 C 9.660156 -0.6875 11.046875 -2.660156 11.046875 -6.609375 C 11.046875 -8.816406 10.644531 -10.414062 9.84375 -11.40625 C 9.050781 -12.40625 8.046875 -12.90625 6.828125 -12.90625 L 5.359375 -12.90625 L 5.359375 -2.015625 C 5.359375 -1.628906 5.398438 -1.34375 5.484375 -1.15625 C 5.578125 -0.976562 5.726562 -0.851562 5.9375 -0.78125 C 6.144531 -0.71875 6.460938 -0.6875 6.890625 -0.6875 Z M 6.890625 -0.6875 "/></g></g></g><g fill="#000b6d" fill-opacity="1"><g transform="translate(101.224948, 19.063124)"><g><path d="M 4.90625 -9.40625 C 5.71875 -9.40625 6.453125 -9.210938 7.109375 -8.828125 C 7.773438 -8.441406 8.3125 -7.882812 8.71875 -7.15625 C 9.125 -6.425781 9.328125 -5.550781 9.328125 -4.53125 C 9.328125 -3.445312 9.101562 -2.546875 8.65625 -1.828125 C 8.207031 -1.109375 7.648438 -0.578125 6.984375 -0.234375 C 6.316406 0.109375 5.648438 0.28125 4.984375 0.28125 C 4.265625 0.28125 3.5625 0.09375 2.875 -0.28125 C 2.195312 -0.65625 1.644531 -1.207031 1.21875 -1.9375 C 0.789062 -2.675781 0.578125 -3.5625 0.578125 -4.59375 C 0.578125 -5.519531 0.757812 -6.34375 1.125 -7.0625 C 1.5 -7.789062 2.015625 -8.363281 2.671875 -8.78125 C 3.328125 -9.195312 4.070312 -9.40625 4.90625 -9.40625 Z M 3.421875 -4.984375 C 3.421875 -3.796875 3.457031 -2.878906 3.53125 -2.234375 C 3.613281 -1.597656 3.765625 -1.132812 3.984375 -0.84375 C 4.203125 -0.5625 4.523438 -0.421875 4.953125 -0.421875 C 5.328125 -0.421875 5.628906 -0.535156 5.859375 -0.765625 C 6.085938 -1.003906 6.242188 -1.390625 6.328125 -1.921875 C 6.421875 -2.460938 6.46875 -3.195312 6.46875 -4.125 C 6.46875 -5.3125 6.4375 -6.21875 6.375 -6.84375 C 6.3125 -7.46875 6.164062 -7.929688 5.9375 -8.234375 C 5.71875 -8.546875 5.375 -8.703125 4.90625 -8.703125 C 4.320312 -8.703125 3.925781 -8.390625 3.71875 -7.765625 C 3.519531 -7.140625 3.421875 -6.210938 3.421875 -4.984375 Z M 3.421875 -4.984375 "/></g></g></g><g fill="#000b6d" fill-opacity="1"><g transform="translate(111.120941, 19.063124)"><g><path d="M 4.984375 -9.40625 C 5.566406 -9.40625 6.101562 -9.296875 6.59375 -9.078125 C 7.082031 -8.867188 7.46875 -8.585938 7.75 -8.234375 C 8.03125 -7.890625 8.171875 -7.507812 8.171875 -7.09375 C 8.171875 -6.75 8.054688 -6.460938 7.828125 -6.234375 C 7.597656 -6.015625 7.3125 -5.90625 6.96875 -5.90625 C 6.46875 -5.90625 6.078125 -6.117188 5.796875 -6.546875 C 5.691406 -6.710938 5.617188 -6.875 5.578125 -7.03125 C 5.535156 -7.1875 5.503906 -7.378906 5.484375 -7.609375 C 5.453125 -7.828125 5.421875 -8 5.390625 -8.125 C 5.359375 -8.25 5.296875 -8.359375 5.203125 -8.453125 C 5.035156 -8.617188 4.828125 -8.703125 4.578125 -8.703125 C 4.046875 -8.703125 3.660156 -8.421875 3.421875 -7.859375 C 3.179688 -7.304688 3.0625 -6.632812 3.0625 -5.84375 C 3.0625 -5.207031 3.15625 -4.535156 3.34375 -3.828125 C 3.539062 -3.117188 3.859375 -2.507812 4.296875 -2 C 4.734375 -1.5 5.285156 -1.25 5.953125 -1.25 C 6.378906 -1.25 6.742188 -1.316406 7.046875 -1.453125 C 7.347656 -1.585938 7.703125 -1.875 8.109375 -2.3125 L 8.4375 -2.09375 C 8.007812 -1.332031 7.472656 -0.742188 6.828125 -0.328125 C 6.191406 0.078125 5.476562 0.28125 4.6875 0.28125 C 3.882812 0.28125 3.160156 0.0820312 2.515625 -0.3125 C 1.878906 -0.707031 1.378906 -1.257812 1.015625 -1.96875 C 0.648438 -2.675781 0.46875 -3.476562 0.46875 -4.375 C 0.46875 -5.3125 0.664062 -6.164062 1.0625 -6.9375 C 1.457031 -7.707031 2 -8.3125 2.6875 -8.75 C 3.375 -9.1875 4.140625 -9.40625 4.984375 -9.40625 Z M 4.984375 -9.40625 "/></g></g></g></svg>