<svg xmlns="http://www.w3.org/2000/svg" xmlns:xlink="http://www.w3.org/1999/xlink" width="176" zoomAndPan="magnify" viewBox="0 0 132 30.000001" height="40" preserveAspectRatio="xMidYMid meet" version="1.0"><defs><g/><clipPath id="60ff2ab9df"><path d="M 2.128906 0.578125 L 30 0.578125 L 30 27.660156 L 2.128906 27.660156 Z M 2.128906 0.578125 " clip-rule="nonzero"/></clipPath><clipPath id="4ffbad237a"><path d="M 34.5 5.054688 L 129.539062 5.054688 L 129.539062 29.03125 L 34.5 29.03125 Z M 34.5 5.054688 " clip-rule="nonzero"/></clipPath></defs><g clip-path="url(#60ff2ab9df)"><path fill="#5f6fff" d="M 15.671875 0.578125 C 23.148438 0.578125 29.210938 6.640625 29.210938 14.121094 L 29.210938 23.597656 C 29.210938 24.675781 28.78125 25.710938 28.019531 26.472656 C 27.257812 27.234375 26.226562 27.660156 25.148438 27.660156 L 16.347656 27.660156 L 16.347656 21.722656 C 16.347656 20.367188 16.429688 18.960938 17.140625 17.808594 C 17.652344 16.980469 18.332031 16.273438 19.136719 15.734375 C 19.945312 15.191406 20.855469 14.832031 21.816406 14.675781 L 22.074219 14.632812 C 22.179688 14.597656 22.273438 14.527344 22.339844 14.433594 C 22.40625 14.34375 22.441406 14.234375 22.441406 14.121094 C 22.441406 14.007812 22.40625 13.898438 22.339844 13.804688 C 22.273438 13.714844 22.179688 13.644531 22.074219 13.609375 L 21.816406 13.566406 C 20.414062 13.335938 19.121094 12.675781 18.121094 11.671875 C 17.117188 10.667969 16.453125 9.375 16.226562 7.976562 L 16.183594 7.714844 C 16.148438 7.609375 16.078125 7.515625 15.988281 7.449219 C 15.894531 7.386719 15.785156 7.351562 15.671875 7.351562 C 15.558594 7.351562 15.449219 7.386719 15.355469 7.449219 C 15.265625 7.515625 15.195312 7.609375 15.160156 7.714844 L 15.117188 7.976562 C 14.960938 8.933594 14.601562 9.847656 14.058594 10.652344 C 13.519531 11.460938 12.8125 12.140625 11.984375 12.648438 C 10.832031 13.359375 9.425781 13.445312 8.070312 13.445312 L 2.148438 13.445312 C 2.503906 6.28125 8.421875 0.578125 15.671875 0.578125 Z M 15.671875 0.578125 " fill-opacity="1" fill-rule="nonzero"/><path fill="#5f6fff" d="M 2.132812 14.796875 L 8.074219 14.796875 C 9.425781 14.796875 10.832031 14.878906 11.984375 15.589844 C 12.886719 16.148438 13.644531 16.90625 14.203125 17.808594 C 14.910156 18.960938 14.996094 20.367188 14.996094 21.722656 L 14.996094 27.660156 L 6.195312 27.660156 C 5.117188 27.660156 4.085938 27.234375 3.324219 26.472656 C 2.5625 25.710938 2.132812 24.675781 2.132812 23.597656 Z M 29.210938 1.933594 C 29.210938 2.292969 29.066406 2.636719 28.8125 2.890625 C 28.558594 3.144531 28.214844 3.289062 27.855469 3.289062 C 27.496094 3.289062 27.152344 3.144531 26.898438 2.890625 C 26.644531 2.636719 26.503906 2.292969 26.503906 1.933594 C 26.503906 1.574219 26.644531 1.230469 26.898438 0.976562 C 27.152344 0.722656 27.496094 0.578125 27.855469 0.578125 C 28.214844 0.578125 28.558594 0.722656 28.8125 0.976562 C 29.066406 1.230469 29.210938 1.574219 29.210938 1.933594 Z M 29.210938 1.933594 " fill-opacity="1" fill-rule="nonzero"/></g><path fill="#000b6d" d="M 39.128906 17.136719 L 39.128906 14.917969 L 42.390625 14.917969 C 42.816406 14.917969 43.203125 14.828125 43.550781 14.65625 C 43.898438 14.484375 44.171875 14.234375 44.371094 13.914062 C 44.570312 13.582031 44.671875 13.179688 44.671875 12.714844 C 44.671875 12.261719 44.570312 11.867188 44.371094 11.535156 C 44.171875 11.199219 43.898438 10.945312 43.550781 10.773438 C 43.203125 10.597656 42.816406 10.511719 42.390625 10.511719 L 39.128906 10.511719 L 39.128906 8.289062 L 42.671875 8.289062 C 43.5625 8.289062 44.363281 8.472656 45.070312 8.832031 C 45.792969 9.191406 46.359375 9.707031 46.773438 10.371094 C 47.1875 11.027344 47.394531 11.808594 47.394531 12.714844 C 47.394531 13.621094 47.1875 14.410156 46.773438 15.078125 C 46.359375 15.730469 45.792969 16.238281 45.070312 16.597656 C 44.363281 16.957031 43.5625 17.136719 42.671875 17.136719 Z M 37.125 22.363281 L 37.125 8.289062 L 39.847656 8.289062 L 39.847656 22.363281 Z M 49.179688 22.363281 L 49.179688 12.695312 L 51.800781 12.695312 L 51.800781 22.363281 Z M 51.800781 17.019531 L 50.78125 16.335938 C 50.898438 15.148438 51.246094 14.214844 51.820312 13.535156 C 52.394531 12.839844 53.222656 12.496094 54.300781 12.496094 C 54.769531 12.496094 55.1875 12.574219 55.5625 12.734375 C 55.9375 12.882812 56.277344 13.128906 56.582031 13.476562 L 54.941406 15.355469 C 54.796875 15.195312 54.617188 15.078125 54.402344 14.996094 C 54.203125 14.917969 53.96875 14.875 53.703125 14.875 C 53.140625 14.875 52.679688 15.054688 52.320312 15.417969 C 51.972656 15.765625 51.800781 16.296875 51.800781 17.019531 Z M 61.855469 22.5625 C 60.839844 22.5625 59.941406 22.347656 59.152344 21.921875 C 58.363281 21.480469 57.738281 20.882812 57.269531 20.121094 C 56.816406 19.359375 56.589844 18.492188 56.589844 17.519531 C 56.589844 16.558594 56.8125 15.703125 57.25 14.957031 C 57.703125 14.195312 58.320312 13.59375 59.09375 13.15625 C 59.867188 12.699219 60.726562 12.472656 61.675781 12.472656 C 62.609375 12.472656 63.429688 12.6875 64.136719 13.113281 C 64.855469 13.527344 65.417969 14.101562 65.816406 14.835938 C 66.230469 15.558594 66.4375 16.378906 66.4375 17.296875 C 66.4375 17.472656 66.421875 17.652344 66.398438 17.839844 C 66.382812 18.011719 66.351562 18.210938 66.296875 18.4375 L 58.171875 18.460938 L 58.171875 16.496094 L 65.078125 16.476562 L 64.015625 17.296875 C 63.988281 16.722656 63.882812 16.242188 63.695312 15.855469 C 63.523438 15.46875 63.261719 15.175781 62.914062 14.976562 C 62.582031 14.761719 62.167969 14.65625 61.675781 14.65625 C 61.152344 14.65625 60.699219 14.777344 60.3125 15.015625 C 59.925781 15.242188 59.625 15.570312 59.414062 15.996094 C 59.210938 16.410156 59.113281 16.90625 59.113281 17.476562 C 59.113281 18.066406 59.21875 18.578125 59.433594 19.019531 C 59.660156 19.445312 59.980469 19.78125 60.394531 20.019531 C 60.808594 20.246094 61.289062 20.359375 61.835938 20.359375 C 62.328125 20.359375 62.773438 20.28125 63.175781 20.121094 C 63.574219 19.945312 63.921875 19.695312 64.214844 19.359375 L 65.757812 20.902344 C 65.289062 21.449219 64.714844 21.863281 64.035156 22.140625 C 63.367188 22.421875 62.640625 22.5625 61.855469 22.5625 Z M 71.378906 22.582031 C 70.832031 22.582031 70.292969 22.507812 69.757812 22.363281 C 69.238281 22.214844 68.757812 22.015625 68.320312 21.761719 C 67.878906 21.496094 67.5 21.175781 67.179688 20.800781 L 68.738281 19.21875 C 69.074219 19.59375 69.460938 19.875 69.898438 20.0625 C 70.339844 20.246094 70.828125 20.339844 71.359375 20.339844 C 71.789062 20.339844 72.109375 20.28125 72.320312 20.160156 C 72.546875 20.039062 72.660156 19.859375 72.660156 19.621094 C 72.660156 19.351562 72.542969 19.148438 72.300781 19 C 72.074219 18.851562 71.773438 18.734375 71.402344 18.640625 C 71.027344 18.53125 70.632812 18.417969 70.21875 18.300781 C 69.820312 18.164062 69.433594 18 69.058594 17.796875 C 68.6875 17.585938 68.378906 17.296875 68.136719 16.9375 C 67.910156 16.5625 67.796875 16.082031 67.796875 15.496094 C 67.796875 14.882812 67.945312 14.347656 68.238281 13.894531 C 68.546875 13.441406 68.980469 13.089844 69.539062 12.835938 C 70.101562 12.582031 70.761719 12.453125 71.519531 12.453125 C 72.320312 12.453125 73.042969 12.59375 73.683594 12.875 C 74.335938 13.15625 74.875 13.574219 75.304688 14.136719 L 73.722656 15.71875 C 73.429688 15.355469 73.09375 15.097656 72.722656 14.9375 C 72.363281 14.777344 71.96875 14.695312 71.539062 14.695312 C 71.152344 14.695312 70.855469 14.757812 70.640625 14.875 C 70.441406 14.996094 70.339844 15.164062 70.339844 15.375 C 70.339844 15.617188 70.453125 15.804688 70.679688 15.9375 C 70.921875 16.070312 71.226562 16.191406 71.601562 16.296875 C 71.976562 16.390625 72.363281 16.503906 72.761719 16.636719 C 73.175781 16.757812 73.5625 16.929688 73.921875 17.160156 C 74.296875 17.386719 74.597656 17.683594 74.824219 18.058594 C 75.0625 18.433594 75.183594 18.914062 75.183594 19.5 C 75.183594 20.449219 74.84375 21.203125 74.164062 21.761719 C 73.480469 22.308594 72.554688 22.582031 71.378906 22.582031 Z M 81.515625 22.5625 C 80.527344 22.5625 79.640625 22.34375 78.851562 21.902344 C 78.066406 21.460938 77.445312 20.859375 76.992188 20.101562 C 76.539062 19.339844 76.3125 18.484375 76.3125 17.539062 C 76.3125 16.578125 76.539062 15.71875 76.992188 14.957031 C 77.445312 14.195312 78.066406 13.59375 78.851562 13.15625 C 79.652344 12.699219 80.539062 12.472656 81.515625 12.472656 C 82.273438 12.472656 82.976562 12.613281 83.617188 12.894531 C 84.257812 13.175781 84.808594 13.574219 85.277344 14.09375 L 83.597656 15.796875 C 83.34375 15.515625 83.035156 15.304688 82.675781 15.15625 C 82.328125 15.011719 81.941406 14.9375 81.515625 14.9375 C 81.035156 14.9375 80.601562 15.050781 80.214844 15.277344 C 79.839844 15.488281 79.539062 15.789062 79.3125 16.175781 C 79.097656 16.550781 78.992188 17 78.992188 17.519531 C 78.992188 18.027344 79.097656 18.480469 79.3125 18.878906 C 79.539062 19.265625 79.839844 19.574219 80.214844 19.800781 C 80.601562 20.015625 81.035156 20.121094 81.515625 20.121094 C 81.953125 20.121094 82.347656 20.046875 82.695312 19.902344 C 83.054688 19.742188 83.363281 19.511719 83.617188 19.21875 L 85.316406 20.921875 C 84.824219 21.457031 84.257812 21.863281 83.617188 22.140625 C 82.976562 22.421875 82.273438 22.5625 81.515625 22.5625 Z M 86.800781 22.363281 L 86.800781 12.695312 L 89.421875 12.695312 L 89.421875 22.363281 Z M 89.421875 17.019531 L 88.402344 16.335938 C 88.523438 15.148438 88.871094 14.214844 89.445312 13.535156 C 90.015625 12.839844 90.84375 12.496094 91.925781 12.496094 C 92.394531 12.496094 92.8125 12.574219 93.1875 12.734375 C 93.558594 12.882812 93.898438 13.128906 94.207031 13.476562 L 92.566406 15.355469 C 92.417969 15.195312 92.238281 15.078125 92.027344 14.996094 C 91.824219 14.917969 91.59375 14.875 91.324219 14.875 C 90.765625 14.875 90.304688 15.054688 89.945312 15.417969 C 89.597656 15.765625 89.421875 16.296875 89.421875 17.019531 Z M 95.128906 22.363281 L 95.128906 12.695312 L 97.769531 12.695312 L 97.769531 22.363281 Z M 96.449219 11.132812 C 96.023438 11.132812 95.667969 10.992188 95.386719 10.710938 C 95.109375 10.417969 94.96875 10.058594 94.96875 9.632812 C 94.96875 9.21875 95.109375 8.863281 95.386719 8.570312 C 95.667969 8.277344 96.023438 8.128906 96.449219 8.128906 C 96.890625 8.128906 97.242188 8.277344 97.507812 8.570312 C 97.789062 8.863281 97.929688 9.21875 97.929688 9.632812 C 97.929688 10.058594 97.789062 10.417969 97.507812 10.710938 C 97.242188 10.992188 96.890625 11.132812 96.449219 11.132812 Z M 105.457031 22.5625 C 104.761719 22.5625 104.136719 22.421875 103.574219 22.140625 C 103.015625 21.847656 102.566406 21.457031 102.234375 20.960938 C 101.898438 20.46875 101.71875 19.902344 101.691406 19.261719 L 101.691406 15.835938 C 101.71875 15.195312 101.898438 14.628906 102.234375 14.136719 C 102.582031 13.628906 103.027344 13.226562 103.574219 12.933594 C 104.136719 12.640625 104.761719 12.496094 105.457031 12.496094 C 106.351562 12.496094 107.152344 12.714844 107.855469 13.15625 C 108.566406 13.59375 109.117188 14.195312 109.519531 14.957031 C 109.933594 15.71875 110.140625 16.578125 110.140625 17.539062 C 110.140625 18.484375 109.933594 19.339844 109.519531 20.101562 C 109.117188 20.859375 108.566406 21.460938 107.855469 21.902344 C 107.152344 22.34375 106.351562 22.5625 105.457031 22.5625 Z M 104.996094 20.140625 C 105.476562 20.140625 105.902344 20.035156 106.277344 19.820312 C 106.648438 19.59375 106.9375 19.285156 107.136719 18.898438 C 107.351562 18.5 107.457031 18.039062 107.457031 17.519531 C 107.457031 17.011719 107.351562 16.5625 107.136719 16.175781 C 106.9375 15.777344 106.648438 15.46875 106.277344 15.257812 C 105.902344 15.03125 105.476562 14.917969 104.996094 14.917969 C 104.527344 14.917969 104.109375 15.03125 103.734375 15.257812 C 103.363281 15.46875 103.066406 15.777344 102.855469 16.175781 C 102.652344 16.5625 102.554688 17.011719 102.554688 17.519531 C 102.554688 18.039062 102.652344 18.5 102.855469 18.898438 C 103.066406 19.285156 103.355469 19.59375 103.714844 19.820312 C 104.089844 20.035156 104.515625 20.140625 104.996094 20.140625 Z M 100.09375 26.40625 L 100.09375 12.695312 L 102.714844 12.695312 L 102.714844 15.238281 L 102.273438 17.578125 L 102.695312 19.921875 L 102.695312 26.40625 Z M 113.042969 22.363281 L 113.042969 8.671875 L 115.667969 8.671875 L 115.667969 22.363281 Z M 110.78125 14.996094 L 110.78125 12.695312 L 117.929688 12.695312 L 117.929688 14.996094 Z M 123.710938 22.5625 C 122.738281 22.5625 121.855469 22.34375 121.070312 21.902344 C 120.296875 21.449219 119.675781 20.839844 119.207031 20.082031 C 118.753906 19.308594 118.527344 18.445312 118.527344 17.5 C 118.527344 16.550781 118.753906 15.703125 119.207031 14.957031 C 119.660156 14.195312 120.28125 13.59375 121.070312 13.15625 C 121.855469 12.699219 122.730469 12.472656 123.691406 12.472656 C 124.679688 12.472656 125.558594 12.699219 126.332031 13.15625 C 127.121094 13.59375 127.742188 14.195312 128.195312 14.957031 C 128.648438 15.703125 128.875 16.550781 128.875 17.5 C 128.875 18.445312 128.648438 19.308594 128.195312 20.082031 C 127.742188 20.839844 127.121094 21.449219 126.332031 21.902344 C 125.558594 22.34375 124.683594 22.5625 123.710938 22.5625 Z M 123.691406 20.121094 C 124.183594 20.121094 124.617188 20.015625 124.992188 19.800781 C 125.378906 19.574219 125.671875 19.265625 125.871094 18.878906 C 126.085938 18.480469 126.191406 18.027344 126.191406 17.519531 C 126.191406 17.011719 126.085938 16.5625 125.871094 16.175781 C 125.660156 15.789062 125.363281 15.488281 124.992188 15.277344 C 124.617188 15.050781 124.183594 14.9375 123.691406 14.9375 C 123.210938 14.9375 122.785156 15.050781 122.410156 15.277344 C 122.035156 15.488281 121.742188 15.789062 121.53125 16.175781 C 121.316406 16.5625 121.210938 17.011719 121.210938 17.519531 C 121.210938 18.027344 121.316406 18.480469 121.53125 18.878906 C 121.742188 19.265625 122.035156 19.574219 122.410156 19.800781 C 122.785156 20.015625 123.210938 20.121094 123.691406 20.121094 Z M 123.691406 20.121094 " fill-opacity="1" fill-rule="nonzero"/><g clip-path="url(#4ffbad237a)"><path fill="#ffffff" d="M 34.5 15.734375 C 34.5 9.835938 39.277344 5.058594 45.167969 5.058594 L 118.871094 5.058594 C 124.761719 5.058594 129.539062 9.835938 129.539062 15.734375 L 129.539062 18.394531 C 129.539062 24.289062 124.765625 29.066406 118.875 29.066406 L 45.167969 29.066406 C 39.277344 29.066406 34.5 24.285156 34.5 18.390625 Z M 34.5 15.734375 " fill-opacity="1" fill-rule="nonzero"/></g><g fill="#000b6d" fill-opacity="1"><g transform="translate(35.54431, 21.558816)"><g><path d="M 8.109375 -13.890625 C 9.523438 -13.890625 10.789062 -13.582031 11.90625 -12.96875 C 13.019531 -12.363281 13.890625 -11.519531 14.515625 -10.4375 C 15.148438 -9.351562 15.46875 -8.140625 15.46875 -6.796875 C 15.46875 -5.640625 15.234375 -4.578125 14.765625 -3.609375 C 14.304688 -2.640625 13.65625 -1.828125 12.8125 -1.171875 C 11.976562 -0.523438 11.003906 -0.09375 9.890625 0.125 C 10.148438 0.945312 10.617188 1.609375 11.296875 2.109375 C 11.972656 2.617188 12.800781 2.875 13.78125 2.875 C 14.125 2.875 14.453125 2.835938 14.765625 2.765625 L 14.765625 3.328125 C 13.929688 3.585938 13.019531 3.71875 12.03125 3.71875 C 10.71875 3.71875 9.578125 3.40625 8.609375 2.78125 C 7.648438 2.15625 6.929688 1.269531 6.453125 0.125 C 5.234375 -0.101562 4.203125 -0.554688 3.359375 -1.234375 C 2.515625 -1.910156 1.878906 -2.734375 1.453125 -3.703125 C 1.023438 -4.679688 0.8125 -5.71875 0.8125 -6.8125 C 0.8125 -8.164062 1.125 -9.378906 1.75 -10.453125 C 2.375 -11.535156 3.238281 -12.378906 4.34375 -12.984375 C 5.457031 -13.585938 6.710938 -13.890625 8.109375 -13.890625 Z M 4.328125 -6.84375 C 4.328125 -5.757812 4.457031 -4.726562 4.71875 -3.75 C 4.976562 -2.78125 5.390625 -1.984375 5.953125 -1.359375 C 6.523438 -0.734375 7.242188 -0.421875 8.109375 -0.421875 C 8.878906 -0.421875 9.550781 -0.671875 10.125 -1.171875 C 10.695312 -1.679688 11.140625 -2.40625 11.453125 -3.34375 C 11.773438 -4.289062 11.9375 -5.398438 11.9375 -6.671875 C 11.9375 -8.734375 11.59375 -10.335938 10.90625 -11.484375 C 10.226562 -12.628906 9.304688 -13.203125 8.140625 -13.203125 C 7.421875 -13.203125 6.773438 -12.96875 6.203125 -12.5 C 5.628906 -12.039062 5.171875 -11.332031 4.828125 -10.375 C 4.492188 -9.425781 4.328125 -8.25 4.328125 -6.84375 Z M 4.328125 -6.84375 "/></g></g></g><g fill="#000b6d" fill-opacity="1"><g transform="translate(51.833114, 21.558816)"><g><path d="M 3.765625 -2.71875 C 3.765625 -2.132812 3.832031 -1.710938 3.96875 -1.453125 C 4.101562 -1.191406 4.320312 -1.0625 4.625 -1.0625 C 4.90625 -1.0625 5.179688 -1.164062 5.453125 -1.375 C 5.734375 -1.59375 5.984375 -1.882812 6.203125 -2.25 L 6.203125 -7.71875 C 6.203125 -8.101562 6.109375 -8.375 5.921875 -8.53125 C 5.734375 -8.6875 5.441406 -8.785156 5.046875 -8.828125 L 5.046875 -9.1875 L 8.90625 -9.1875 L 8.90625 -1.09375 C 8.90625 -0.65625 9.128906 -0.410156 9.578125 -0.359375 L 9.578125 0 L 6.203125 0 L 6.203125 -1.1875 C 5.828125 -0.75 5.414062 -0.394531 4.96875 -0.125 C 4.519531 0.144531 4.054688 0.28125 3.578125 0.28125 C 2.804688 0.28125 2.191406 0.0234375 1.734375 -0.484375 C 1.273438 -0.992188 1.046875 -1.671875 1.046875 -2.515625 L 1.046875 -7.578125 C 1.046875 -7.992188 0.992188 -8.289062 0.890625 -8.46875 C 0.785156 -8.65625 0.585938 -8.773438 0.296875 -8.828125 L 0.296875 -9.1875 L 3.765625 -9.1875 Z M 3.765625 -2.71875 "/></g></g></g><g fill="#000b6d" fill-opacity="1"><g transform="translate(61.729107, 21.558816)"><g><path d="M 2.796875 -13.890625 C 3.210938 -13.890625 3.566406 -13.738281 3.859375 -13.4375 C 4.160156 -13.144531 4.3125 -12.789062 4.3125 -12.375 C 4.3125 -11.945312 4.160156 -11.582031 3.859375 -11.28125 C 3.566406 -10.976562 3.210938 -10.828125 2.796875 -10.828125 C 2.367188 -10.828125 2.003906 -10.976562 1.703125 -11.28125 C 1.398438 -11.582031 1.25 -11.945312 1.25 -12.375 C 1.25 -12.789062 1.398438 -13.144531 1.703125 -13.4375 C 2.003906 -13.738281 2.367188 -13.890625 2.796875 -13.890625 Z M 4.09375 -1.5 C 4.09375 -0.75 4.425781 -0.367188 5.09375 -0.359375 L 5.09375 0 L 0.234375 0 L 0.234375 -0.359375 C 0.640625 -0.359375 0.929688 -0.445312 1.109375 -0.625 C 1.296875 -0.8125 1.390625 -1.140625 1.390625 -1.609375 L 1.390625 -7.609375 C 1.390625 -8.035156 1.300781 -8.34375 1.125 -8.53125 C 0.957031 -8.726562 0.660156 -8.828125 0.234375 -8.828125 L 0.234375 -9.1875 L 4.09375 -9.1875 Z M 4.09375 -1.5 "/></g></g></g><g fill="#000b6d" fill-opacity="1"><g transform="translate(67.092736, 21.558816)"><g><path d="M 4.984375 -9.40625 C 5.566406 -9.40625 6.101562 -9.296875 6.59375 -9.078125 C 7.082031 -8.867188 7.46875 -8.585938 7.75 -8.234375 C 8.03125 -7.890625 8.171875 -7.507812 8.171875 -7.09375 C 8.171875 -6.75 8.054688 -6.460938 7.828125 -6.234375 C 7.597656 -6.015625 7.3125 -5.90625 6.96875 -5.90625 C 6.46875 -5.90625 6.078125 -6.117188 5.796875 -6.546875 C 5.691406 -6.710938 5.617188 -6.875 5.578125 -7.03125 C 5.535156 -7.1875 5.503906 -7.378906 5.484375 -7.609375 C 5.453125 -7.828125 5.421875 -8 5.390625 -8.125 C 5.359375 -8.25 5.296875 -8.359375 5.203125 -8.453125 C 5.035156 -8.617188 4.828125 -8.703125 4.578125 -8.703125 C 4.046875 -8.703125 3.660156 -8.421875 3.421875 -7.859375 C 3.179688 -7.304688 3.0625 -6.632812 3.0625 -5.84375 C 3.0625 -5.207031 3.15625 -4.535156 3.34375 -3.828125 C 3.539062 -3.117188 3.859375 -2.507812 4.296875 -2 C 4.734375 -1.5 5.285156 -1.25 5.953125 -1.25 C 6.378906 -1.25 6.742188 -1.316406 7.046875 -1.453125 C 7.347656 -1.585938 7.703125 -1.875 8.109375 -2.3125 L 8.4375 -2.09375 C 8.007812 -1.332031 7.472656 -0.742188 6.828125 -0.328125 C 6.191406 0.078125 5.476562 0.28125 4.6875 0.28125 C 3.882812 0.28125 3.160156 0.0820312 2.515625 -0.3125 C 1.878906 -0.707031 1.378906 -1.257812 1.015625 -1.96875 C 0.648438 -2.675781 0.46875 -3.476562 0.46875 -4.375 C 0.46875 -5.3125 0.664062 -6.164062 1.0625 -6.9375 C 1.457031 -7.707031 2 -8.3125 2.6875 -8.75 C 3.375 -9.1875 4.140625 -9.40625 4.984375 -9.40625 Z M 4.984375 -9.40625 "/></g></g></g><g fill="#000b6d" fill-opacity="1"><g transform="translate(75.761625, 21.558816)"><g><path d="M 4.203125 -4.546875 L 6.078125 -6.734375 C 6.421875 -7.128906 6.640625 -7.414062 6.734375 -7.59375 C 6.835938 -7.78125 6.890625 -7.960938 6.890625 -8.140625 C 6.890625 -8.390625 6.800781 -8.566406 6.625 -8.671875 C 6.457031 -8.773438 6.195312 -8.828125 5.84375 -8.828125 L 5.84375 -9.1875 L 9.796875 -9.1875 L 9.796875 -8.828125 C 9.398438 -8.773438 9.050781 -8.660156 8.75 -8.484375 C 8.445312 -8.316406 8.132812 -8.066406 7.8125 -7.734375 C 7.5 -7.410156 7 -6.851562 6.3125 -6.0625 L 8.765625 -2.296875 C 9.234375 -1.585938 9.601562 -1.085938 9.875 -0.796875 C 10.144531 -0.515625 10.394531 -0.367188 10.625 -0.359375 L 10.625 0 L 6.078125 0 L 6.078125 -0.359375 C 6.285156 -0.378906 6.429688 -0.414062 6.515625 -0.46875 C 6.609375 -0.519531 6.65625 -0.609375 6.65625 -0.734375 C 6.65625 -0.847656 6.566406 -1.050781 6.390625 -1.34375 L 4.625 -4.125 L 4.203125 -3.625 L 4.203125 -1.546875 C 4.203125 -1.097656 4.285156 -0.789062 4.453125 -0.625 C 4.628906 -0.457031 4.914062 -0.367188 5.3125 -0.359375 L 5.3125 0 L 0.28125 0 L 0.28125 -0.359375 C 0.769531 -0.367188 1.09375 -0.457031 1.25 -0.625 C 1.40625 -0.789062 1.484375 -1.109375 1.484375 -1.578125 L 1.484375 -12 C 1.484375 -12.457031 1.394531 -12.78125 1.21875 -12.96875 C 1.039062 -13.15625 0.726562 -13.25 0.28125 -13.25 L 0.28125 -13.59375 L 4.203125 -13.59375 Z M 4.203125 -4.546875 "/></g></g></g><g fill="#000b6d" fill-opacity="1"><g transform="translate(86.6868, 21.558816)"><g><path d="M 14.578125 -6.71875 C 14.578125 -5.3125 14.273438 -4.097656 13.671875 -3.078125 C 13.066406 -2.066406 12.242188 -1.300781 11.203125 -0.78125 C 10.171875 -0.257812 9.023438 0 7.765625 0 L 0.34375 0 L 0.34375 -0.359375 C 0.820312 -0.359375 1.1875 -0.394531 1.4375 -0.46875 C 1.695312 -0.539062 1.890625 -0.691406 2.015625 -0.921875 C 2.140625 -1.160156 2.203125 -1.539062 2.203125 -2.0625 L 2.203125 -11.515625 C 2.203125 -12.035156 2.132812 -12.414062 2 -12.65625 C 1.863281 -12.90625 1.671875 -13.066406 1.421875 -13.140625 C 1.171875 -13.210938 0.8125 -13.25 0.34375 -13.25 L 0.34375 -13.59375 L 7.4375 -13.59375 C 8.738281 -13.59375 9.925781 -13.332031 11 -12.8125 C 12.082031 -12.289062 12.945312 -11.507812 13.59375 -10.46875 C 14.25 -9.4375 14.578125 -8.1875 14.578125 -6.71875 Z M 6.890625 -0.6875 C 9.660156 -0.6875 11.046875 -2.660156 11.046875 -6.609375 C 11.046875 -8.816406 10.644531 -10.414062 9.84375 -11.40625 C 9.050781 -12.40625 8.046875 -12.90625 6.828125 -12.90625 L 5.359375 -12.90625 L 5.359375 -2.015625 C 5.359375 -1.628906 5.398438 -1.34375 5.484375 -1.15625 C 5.578125 -0.976562 5.726562 -0.851562 5.9375 -0.78125 C 6.144531 -0.71875 6.460938 -0.6875 6.890625 -0.6875 Z M 6.890625 -0.6875 "/></g></g></g><g fill="#000b6d" fill-opacity="1"><g transform="translate(101.946422, 21.558816)"><g><path d="M 4.90625 -9.40625 C 5.71875 -9.40625 6.453125 -9.210938 7.109375 -8.828125 C 7.773438 -8.441406 8.3125 -7.882812 8.71875 -7.15625 C 9.125 -6.425781 9.328125 -5.550781 9.328125 -4.53125 C 9.328125 -3.445312 9.101562 -2.546875 8.65625 -1.828125 C 8.207031 -1.109375 7.648438 -0.578125 6.984375 -0.234375 C 6.316406 0.109375 5.648438 0.28125 4.984375 0.28125 C 4.265625 0.28125 3.5625 0.09375 2.875 -0.28125 C 2.195312 -0.65625 1.644531 -1.207031 1.21875 -1.9375 C 0.789062 -2.675781 0.578125 -3.5625 0.578125 -4.59375 C 0.578125 -5.519531 0.757812 -6.34375 1.125 -7.0625 C 1.5 -7.789062 2.015625 -8.363281 2.671875 -8.78125 C 3.328125 -9.195312 4.070312 -9.40625 4.90625 -9.40625 Z M 3.421875 -4.984375 C 3.421875 -3.796875 3.457031 -2.878906 3.53125 -2.234375 C 3.613281 -1.597656 3.765625 -1.132812 3.984375 -0.84375 C 4.203125 -0.5625 4.523438 -0.421875 4.953125 -0.421875 C 5.328125 -0.421875 5.628906 -0.535156 5.859375 -0.765625 C 6.085938 -1.003906 6.242188 -1.390625 6.328125 -1.921875 C 6.421875 -2.460938 6.46875 -3.195312 6.46875 -4.125 C 6.46875 -5.3125 6.4375 -6.21875 6.375 -6.84375 C 6.3125 -7.46875 6.164062 -7.929688 5.9375 -8.234375 C 5.71875 -8.546875 5.375 -8.703125 4.90625 -8.703125 C 4.320312 -8.703125 3.925781 -8.390625 3.71875 -7.765625 C 3.519531 -7.140625 3.421875 -6.210938 3.421875 -4.984375 Z M 3.421875 -4.984375 "/></g></g></g><g fill="#000b6d" fill-opacity="1"><g transform="translate(111.842415, 21.558816)"><g><path d="M 4.984375 -9.40625 C 5.566406 -9.40625 6.101562 -9.296875 6.59375 -9.078125 C 7.082031 -8.867188 7.46875 -8.585938 7.75 -8.234375 C 8.03125 -7.890625 8.171875 -7.507812 8.171875 -7.09375 C 8.171875 -6.75 8.054688 -6.460938 7.828125 -6.234375 C 7.597656 -6.015625 7.3125 -5.90625 6.96875 -5.90625 C 6.46875 -5.90625 6.078125 -6.117188 5.796875 -6.546875 C 5.691406 -6.710938 5.617188 -6.875 5.578125 -7.03125 C 5.535156 -7.1875 5.503906 -7.378906 5.484375 -7.609375 C 5.453125 -7.828125 5.421875 -8 5.390625 -8.125 C 5.359375 -8.25 5.296875 -8.359375 5.203125 -8.453125 C 5.035156 -8.617188 4.828125 -8.703125 4.578125 -8.703125 C 4.046875 -8.703125 3.660156 -8.421875 3.421875 -7.859375 C 3.179688 -7.304688 3.0625 -6.632812 3.0625 -5.84375 C 3.0625 -5.207031 3.15625 -4.535156 3.34375 -3.828125 C 3.539062 -3.117188 3.859375 -2.507812 4.296875 -2 C 4.734375 -1.5 5.285156 -1.25 5.953125 -1.25 C 6.378906 -1.25 6.742188 -1.316406 7.046875 -1.453125 C 7.347656 -1.585938 7.703125 -1.875 8.109375 -2.3125 L 8.4375 -2.09375 C 8.007812 -1.332031 7.472656 -0.742188 6.828125 -0.328125 C 6.191406 0.078125 5.476562 0.28125 4.6875 0.28125 C 3.882812 0.28125 3.160156 0.0820312 2.515625 -0.3125 C 1.878906 -0.707031 1.378906 -1.257812 1.015625 -1.96875 C 0.648438 -2.675781 0.46875 -3.476562 0.46875 -4.375 C 0.46875 -5.3125 0.664062 -6.164062 1.0625 -6.9375 C 1.457031 -7.707031 2 -8.3125 2.6875 -8.75 C 3.375 -9.1875 4.140625 -9.40625 4.984375 -9.40625 Z M 4.984375 -9.40625 "/></g></g></g></svg>