<svg xmlns="http://www.w3.org/2000/svg" xmlns:xlink="http://www.w3.org/1999/xlink" width="500" zoomAndPan="magnify" viewBox="0 0 375 374.999991" height="500" preserveAspectRatio="xMidYMid meet" version="1.0"><defs><clipPath id="d6cd5fe482"><path d="M 5.511719 8.550781 L 363 8.550781 L 363 365.09375 L 5.511719 365.09375 Z M 5.511719 8.550781 " clip-rule="nonzero"/></clipPath></defs><g clip-path="url(#d6cd5fe482)"><path fill="#5f6fff" d="M 184.25 8.550781 C 282.949219 8.550781 362.957031 88.363281 362.957031 186.820312 L 362.957031 311.617188 C 362.957031 325.796875 357.308594 339.40625 347.25 349.433594 C 337.199219 359.464844 323.5625 365.09375 309.34375 365.09375 L 193.175781 365.09375 L 193.175781 286.886719 C 193.175781 269.042969 194.269531 250.558594 203.648438 235.363281 C 210.371094 224.484375 219.355469 215.167969 229.996094 208.050781 C 240.644531 200.933594 252.695312 196.183594 265.347656 194.125 L 268.761719 193.574219 C 270.171875 193.089844 271.402344 192.179688 272.273438 190.972656 C 273.132812 189.761719 273.605469 188.3125 273.605469 186.820312 C 273.605469 185.34375 273.132812 183.890625 272.273438 182.683594 C 271.402344 181.464844 270.171875 180.554688 268.761719 180.082031 L 265.347656 179.527344 C 246.863281 176.511719 229.804688 167.789062 216.5625 154.585938 C 203.332031 141.375 194.578125 124.359375 191.558594 105.925781 L 191.007812 102.511719 C 190.523438 101.101562 189.617188 99.882812 188.398438 99.019531 C 187.1875 98.148438 185.738281 97.6875 184.25 97.6875 C 182.75 97.6875 181.296875 98.148438 180.089844 99.019531 C 178.871094 99.882812 177.960938 101.101562 177.476562 102.511719 L 176.925781 105.925781 C 174.855469 118.539062 170.097656 130.558594 162.96875 141.179688 C 155.832031 151.800781 146.488281 160.765625 135.578125 167.46875 C 120.355469 176.820312 101.824219 177.914062 83.929688 177.914062 L 5.742188 177.914062 C 10.414062 83.59375 88.546875 8.550781 184.25 8.550781 Z M 184.25 8.550781 " fill-opacity="1" fill-rule="nonzero"/><path fill="#5f6fff" d="M 5.53125 195.738281 L 83.929688 195.738281 C 101.824219 195.738281 120.355469 196.824219 135.578125 206.183594 C 147.484375 213.507812 157.503906 223.496094 164.835938 235.363281 C 174.21875 250.558594 175.3125 269.042969 175.3125 286.886719 L 175.3125 365.09375 L 59.152344 365.09375 C 44.925781 365.09375 31.289062 359.464844 21.238281 349.433594 C 11.179688 339.40625 5.53125 325.796875 5.53125 311.617188 Z M 362.957031 26.382812 C 362.957031 31.105469 361.078125 35.640625 357.722656 38.988281 C 354.375 42.332031 349.832031 44.210938 345.089844 44.210938 C 340.34375 44.210938 335.796875 42.332031 332.449219 38.988281 C 329.09375 35.640625 327.21875 31.105469 327.21875 26.382812 C 327.21875 21.65625 329.09375 17.117188 332.449219 13.773438 C 335.796875 10.4375 340.34375 8.550781 345.089844 8.550781 C 349.832031 8.550781 354.375 10.4375 357.722656 13.773438 C 361.078125 17.117188 362.957031 21.65625 362.957031 26.382812 Z M 362.957031 26.382812 " fill-opacity="1" fill-rule="nonzero"/></g></svg>